# xmcd CD database file
#
# Track frame offsets:
#	183
#	12333
#	27595
#	49420
#	75608
#	90908
#	104083
#	117708
#	130670
#	153370
#	165408
#	176820
#	197895
#	223345
#	237070
#	250945
#	264358
#	277395
#	291070
#	303170
#
# Disc length: 4218 seconds
#
# Revision: 2
# Processed by: cddbd v1.5.2PL0 Copyright (c) Steve Scherf et al.
# Submitted via: CDex 1.70beta2
#
DISCID=24107814
DTITLE=Various Artist - World of the Blues [CD2]
DYEAR=1989
DGENRE=Blues
TTITLE0=John Lee Hooker - I'm in the mood
TTITLE1=Muddy Wasters - They call me Muddy Waters
TTITLE2=Elmore James - Something inside of me
TTITLE3=Big Mama Thornton - Little red rooster
TTITLE4=Howlin' Wolf - Goin' down slow
TTITLE5=Sonny Boy Williamson - Work with me
TTITLE6=Little Walter - Can't hold out much longer
TTITLE7=Muddy Waters - Forty days and forty nights
TTITLE8=Sonny Terry and Brownie McGhee - Drinking in the blues
TTITLE9=John Lee Hooker - Whiskey and wimmen
TTITLE10=Elmore James - Shake your moneymaker
TTITLE11=B. B. King - Guess who
TTITLE12=Big Mama Thornton - Ball and chain
TTITLE13=Sonny Boy Williamson - Don't lose your eye
TTITLE14=muddy Waters - Lonesome road blues
TTITLE15=Lowell Fulson - Hung down head
TTITLE16=Howlin' Wolf - Moanin' at midnight
TTITLE17=John Lee Hooker - Time is marching
TTITLE18=Jimmy Reed - Honest I do
TTITLE19=Little Walter - Mean old world
EXTD=YEAR: 1989
EXTT0=
EXTT1=
EXTT2=
EXTT3=
EXTT4=
EXTT5=
EXTT6=
EXTT7=
EXTT8=
EXTT9=
EXTT10=
EXTT11=
EXTT12=
EXTT13=
EXTT14=
EXTT15=
EXTT16=
EXTT17=
EXTT18=
EXTT19=
PLAYORDER=
